<?xml version="1.0" encoding="UTF-8" standalone="no"?><!DOCTYPE svg PUBLIC "-//W3C//DTD SVG 1.1//EN" "http://www.w3.org/Graphics/SVG/1.1/DTD/svg11.dtd"><svg width="100%" height="100%" viewBox="0 0 8684 5267" version="1.1" xmlns="http://www.w3.org/2000/svg" xmlns:xlink="http://www.w3.org/1999/xlink" xml:space="preserve" xmlns:serif="http://www.serif.com/" style="fill-rule:evenodd;clip-rule:evenodd;stroke-linejoin:round;stroke-miterlimit:2;"><g><path d="M1094.62,5265.52l0,-5265.52l2737.12,0l0,735.821l-1736.53,-0l-0,945.646l1326.36,-0l0,735.821l-1326.36,-0l0,2848.23l-1000.6,-0Z" style="fill:url(#_Linear1);fill-rule:nonzero;"/><path d="M5997.5,5265.5l-1886.85,-5265.5l952.413,0l1432.89,3743.62l1252.96,-3743.62l931.641,0l-1745.48,5265.5l-937.579,0Z" style="fill:url(#_Linear2);fill-rule:nonzero;"/><path d="M0,5265.5l2094.5,0c871.133,-3522.74 6170.29,-3191.11 6170.29,-3191.11c-0.001,-0 -6083.96,-999.313 -8264.75,3191.11" style="fill:#099494;"/></g><defs><linearGradient id="_Linear1" x1="0" y1="0" x2="1" y2="0" gradientUnits="userSpaceOnUse" gradientTransform="matrix(1.11338e-13,1818.29,-1818.29,1.11338e-13,1638.07,1970.19)"><stop offset="0" style="stop-color:#000;stop-opacity:1"/><stop offset="1" style="stop-color:#1b74bb;stop-opacity:1"/></linearGradient><linearGradient id="_Linear2" x1="0" y1="0" x2="1" y2="0" gradientUnits="userSpaceOnUse" gradientTransform="matrix(1.11338e-13,1818.29,-1818.29,1.11338e-13,1638.07,1970.19)"><stop offset="0" style="stop-color:#000;stop-opacity:1"/><stop offset="1" style="stop-color:#1b74bb;stop-opacity:1"/></linearGradient></defs></svg>